<svg version="1.1" id="Layer_1" xmlns="http://www.w3.org/2000/svg" xmlns:xlink="http://www.w3.org/1999/xlink" x="0px" y="0px"
	 width="100%" viewBox="0 0 512 512" enable-background="new 0 0 512 512" xml:space="preserve">
<path fill="#FFFFFF" opacity="1.000000" stroke="none" 
	d="
M350.000000,513.000000 
	C233.361679,513.000000 117.223351,513.000000 1.042510,513.000000 
	C1.042510,342.403320 1.042510,171.806625 1.042510,1.104965 
	C171.554993,1.104965 342.110077,1.104965 512.832581,1.104965 
	C512.832581,171.666534 512.832581,342.333252 512.832581,513.000000 
	C458.806549,513.000000 404.653290,513.000000 350.000000,513.000000 
M275.848755,343.743683 
	C275.979553,344.067627 276.203766,344.302307 276.746521,344.946289 
	C277.115723,345.324524 277.484924,345.702759 278.047882,346.738281 
	C285.028259,355.499939 292.008667,364.261597 299.261047,373.635834 
	C324.116852,396.832092 359.816589,399.613373 385.617554,379.920563 
	C402.919739,366.714508 410.548126,348.481812 411.530334,326.293274 
	C411.521423,319.203156 411.512512,312.113007 411.820740,304.175598 
	C411.713104,301.778198 411.605469,299.380829 411.587677,296.054260 
	C411.547424,288.715851 411.507172,281.377441 411.797424,273.264130 
	C411.686493,272.165924 411.575531,271.067719 411.560822,269.150940 
	C411.527802,267.779327 411.494781,266.407715 411.796051,264.180237 
	C411.685059,261.442413 411.574097,258.704620 411.560333,255.185562 
	C411.527893,254.138077 411.495422,253.090591 411.798462,251.155960 
	C411.562469,244.096085 411.326477,237.036224 411.107727,229.154083 
	C409.895752,219.025955 405.329346,210.808273 397.020966,204.247147 
	C396.837067,204.001434 396.591766,203.885071 396.045776,203.429642 
	C395.748383,203.260056 395.450989,203.090454 394.832489,202.325439 
	C384.632568,193.486649 374.432617,184.647858 364.221588,175.833786 
	C364.221588,175.833786 364.206665,175.839294 363.955658,175.310699 
	C363.333801,174.851593 362.711975,174.392502 361.778900,173.338806 
	C354.076782,166.599548 346.374664,159.860291 337.921753,152.464127 
	C337.921753,154.403763 337.921753,155.185699 337.715820,156.693848 
	C337.754028,157.688889 337.792236,158.683914 337.533417,160.481400 
	C337.515472,184.991272 337.497559,209.501144 337.283966,234.701340 
	C337.326965,235.175262 337.369965,235.649200 337.192352,237.019760 
	C337.150299,248.017044 337.108246,259.014313 336.890778,270.435181 
	C336.890778,270.435181 336.945282,270.890350 336.661591,271.163208 
	C336.525177,271.392792 336.447388,271.640747 336.045227,272.462555 
	C336.004395,272.909637 335.963562,273.356689 335.256958,274.115051 
	C334.173950,274.620239 333.090942,275.125427 331.394623,275.228973 
	C327.279999,270.787323 323.165405,266.345673 318.957947,261.406311 
	C318.707001,261.199615 318.456085,260.992920 318.097046,260.898285 
	C318.097046,260.898285 318.243683,260.845947 318.122375,260.313202 
	C317.853638,260.085022 317.584900,259.856842 317.242065,259.796448 
	C317.242065,259.796448 317.383850,259.680084 317.274384,259.232666 
	C317.145447,258.938904 316.937103,258.721100 316.558502,258.488464 
	C316.558502,258.488464 316.538788,258.361542 316.314545,257.876038 
	C315.949310,257.508881 315.584076,257.141724 315.098999,256.905518 
	C315.098999,256.905518 315.258484,256.827576 315.140381,256.303253 
	C314.883392,256.069519 314.626373,255.835785 314.293030,255.795288 
	C314.293030,255.795288 314.438477,255.646912 314.195953,255.019653 
	C309.874908,249.315598 305.553833,243.611526 301.089264,237.357452 
	C300.801422,237.128967 300.513580,236.900497 300.192993,236.827011 
	C300.192993,236.827011 300.343933,236.778931 300.181732,236.219070 
	C299.796906,235.803070 299.412079,235.387085 298.999115,234.999390 
	C298.999115,234.999390 299.031311,234.977203 298.924072,234.454193 
	C298.658936,234.233032 298.393829,234.011856 298.094788,233.897736 
	C298.094788,233.897736 298.194946,233.846909 298.075928,233.293884 
	C297.594543,232.723297 297.113159,232.152710 296.597443,231.604431 
	C296.597443,231.604431 296.630280,231.572144 296.311615,230.959015 
	C291.549927,224.625473 286.788208,218.291916 281.936371,211.449677 
	C281.679169,211.239319 281.421997,211.028976 281.018219,210.969467 
	C281.018219,210.969467 281.187073,210.844101 281.001923,210.187576 
	C274.685516,201.764862 268.369080,193.342133 261.877197,184.254791 
	C260.157288,181.949677 258.476288,179.614273 256.709961,177.345291 
	C251.905106,171.173096 247.064163,165.029007 242.152527,158.155823 
	C238.364227,153.112839 234.575928,148.069855 230.646942,142.385086 
	C220.341721,129.452423 207.663376,120.204399 190.484879,116.498726 
	C179.981171,113.801422 169.458878,113.900276 158.890030,116.156639 
	C127.144676,122.933983 104.053261,150.253113 103.981987,181.906342 
	C104.031609,201.597061 104.081223,221.287796 103.968163,241.904694 
	C104.050430,247.581909 104.132698,253.259125 104.022797,259.864319 
	C104.102638,271.161621 103.983292,282.464783 104.317307,293.754578 
	C104.664398,305.485840 108.319275,316.105957 117.474144,323.912842 
	C133.771164,337.810272 150.345993,351.381897 167.050262,365.563690 
	C167.357498,365.727112 167.664734,365.890503 167.995529,365.998138 
	C167.995529,365.998138 167.949982,366.038147 168.230728,366.533966 
	C168.716980,366.809845 169.203232,367.085754 170.032974,367.222382 
	C170.032974,367.222382 169.682632,367.338745 169.898865,367.843872 
	C170.212357,368.023773 170.525864,368.203674 171.040314,368.745026 
	C171.241226,368.950378 171.483978,369.072540 172.022766,369.590149 
	C172.336960,369.751556 172.651169,369.912964 172.987289,370.003601 
	C172.987289,370.003601 172.925034,370.043701 173.155563,370.487122 
	C173.367615,370.775543 173.652267,370.931061 174.209824,371.195068 
	C174.209824,371.195068 174.508148,371.291992 174.795624,371.778229 
	C175.127991,371.940857 175.460373,372.103516 175.928116,372.035461 
	C175.928116,372.035461 175.759140,372.242798 175.983932,372.712311 
	C176.291367,372.858276 176.598801,373.004211 176.966843,373.019592 
	C176.966843,373.019592 176.869888,373.125977 177.218262,373.709839 
	C178.564438,374.758942 179.910614,375.808044 182.005173,377.440369 
	C181.863861,375.020782 181.775726,373.511475 181.821899,371.074249 
	C181.777649,359.715210 181.733398,348.356171 181.819565,336.495544 
	C181.765045,336.331635 181.710510,336.167694 181.783325,335.218292 
	C181.737137,334.160248 181.690948,333.102234 181.804291,331.432373 
	C181.718964,331.240051 181.633636,331.047729 181.620972,330.243652 
	C181.592728,329.834808 181.564499,329.425995 181.846909,328.131592 
	C181.798309,323.078278 181.749710,318.024963 181.776428,312.188416 
	C181.757614,311.140076 181.738800,310.091736 181.976349,308.252838 
	C181.894272,307.158508 181.812195,306.064148 181.794373,304.089081 
	C181.718124,301.737457 181.641876,299.385834 181.852081,296.134705 
	C181.847321,277.763458 181.842575,259.392212 182.055542,240.222336 
	C181.463898,235.595139 183.835617,233.100250 188.758392,231.918884 
	C189.481430,231.901169 190.204453,231.883453 191.396622,232.134354 
	C191.574387,232.163818 191.752151,232.193268 192.262421,232.786713 
	C197.458862,239.365662 202.655304,245.944611 208.013977,253.152481 
	C214.038116,261.099060 220.062256,269.045624 226.276657,277.634155 
	C232.134521,285.283203 237.992371,292.932220 244.008591,301.205383 
	C246.658417,304.785339 249.275177,308.390350 251.964371,311.940491 
	C259.590698,322.008362 267.246643,332.053833 274.984039,342.613281 
	C275.236877,342.828369 275.489685,343.043488 275.848755,343.743683 
M158.686813,425.184570 
	C158.686813,425.184570 158.974258,424.838104 159.600998,424.632172 
	C160.922592,423.367706 162.322632,422.174896 163.553436,420.827515 
	C173.536682,409.898590 175.126587,393.090424 167.445938,379.927063 
	C159.894043,366.984344 146.804459,361.677307 131.712662,364.293213 
	C130.243774,364.793518 128.774902,365.293823 127.185394,365.721802 
	C127.185394,365.721802 127.057953,365.781372 126.359749,365.836761 
	C125.168404,366.480591 123.977058,367.124420 122.757019,367.824188 
	C122.757019,367.824188 122.764061,367.753998 122.094444,367.890594 
	C112.781914,373.366394 107.358238,381.576965 105.441704,392.085510 
	C102.908287,405.976440 109.585060,420.372559 121.613464,427.443176 
	C131.963531,433.527191 146.466278,434.326050 157.981552,425.158905 
	C157.981552,425.158905 158.248169,425.285675 158.686813,425.184570 
M366.489227,79.892151 
	C347.255707,83.308762 333.802704,102.071144 338.292084,123.110138 
	C341.634369,138.773590 354.636200,151.559326 375.263306,150.390396 
	C394.351318,149.308716 409.987305,130.330917 407.636261,111.354820 
	C405.072754,90.663902 387.085052,76.554878 366.489227,79.892151 
z"/>
<path fill="#0E3A6B" opacity="1.000000" stroke="none" 
	d="
M411.214996,327.048157 
	C410.548126,348.481812 402.919739,366.714508 385.617554,379.920563 
	C359.816589,399.613373 324.116852,396.832092 299.400726,373.103882 
	C301.381409,370.765167 303.984924,369.280670 304.911835,367.087555 
	C307.150726,361.790131 311.875336,361.545166 315.966675,361.763672 
	C319.779327,361.967316 321.694031,360.634796 322.876587,357.707977 
	C324.081329,354.726196 325.656982,354.841187 328.332062,355.722321 
	C330.655884,356.487701 333.446686,356.762573 335.810760,356.245911 
	C338.829590,355.586151 341.533203,353.553741 344.543640,352.768097 
	C348.341431,351.777008 352.311066,351.743347 353.904602,346.943390 
	C354.253876,345.891296 356.941681,345.593628 358.568726,344.992310 
	C361.788635,343.802307 365.509491,343.299500 368.144684,341.334412 
	C373.677155,337.208771 376.318329,329.609955 384.401947,327.974091 
	C388.193451,329.155396 391.563751,330.449982 395.018311,331.454834 
	C401.889069,333.453369 407.546661,331.695923 410.292786,327.003601 
	C410.805176,327.027557 411.010071,327.037872 411.214996,327.048157 
z"/>
<path fill="#3B92D8" opacity="1.000000" stroke="none" 
	d="
M366.908325,79.814957 
	C387.085052,76.554878 405.072754,90.663902 407.636261,111.354820 
	C409.987305,130.330917 394.351318,149.308716 375.263306,150.390396 
	C354.636200,151.559326 341.634369,138.773590 338.292084,123.110138 
	C333.802704,102.071144 347.255707,83.308762 366.908325,79.814957 
z"/>
<path fill="#2A77BA" opacity="1.000000" stroke="none" 
	d="
M181.689163,336.997131 
	C181.733398,348.356171 181.777649,359.715210 181.449219,371.727417 
	C179.674301,372.629028 178.272095,372.877502 176.869888,373.125977 
	C176.869888,373.125977 176.966843,373.019592 176.832336,372.839355 
	C176.384949,372.520325 176.072052,372.381561 175.759140,372.242798 
	C175.759140,372.242798 175.928116,372.035461 175.754211,371.870422 
	C175.222900,371.567596 174.865524,371.429810 174.508148,371.291992 
	C174.508148,371.291992 174.209824,371.195068 173.998016,370.850403 
	C173.499146,370.351746 173.212097,370.197723 172.925034,370.043701 
	C172.925034,370.043701 172.987289,370.003601 172.853271,369.795166 
	C172.402359,369.428314 172.085464,369.269897 171.768585,369.111511 
	C171.483978,369.072540 171.241226,368.950378 170.869308,368.277679 
	C170.359741,367.653137 170.021194,367.495941 169.682632,367.338745 
	C169.682632,367.338745 170.032974,367.222382 169.806290,366.984253 
	C169.036392,366.510101 168.493195,366.274139 167.949982,366.038147 
	C167.949982,366.038147 167.995529,365.998138 167.864899,365.785034 
	C167.424393,365.411194 167.114517,365.250488 166.804642,365.089783 
	C150.345993,351.381897 133.771164,337.810272 117.474144,323.912842 
	C108.319275,316.105957 104.664398,305.485840 104.317307,293.754578 
	C103.983292,282.464783 104.102638,271.161621 104.411423,259.421814 
	C105.185898,259.042297 105.571747,259.105286 106.114594,259.449677 
	C129.375916,282.164429 152.473587,304.604614 175.609314,327.005524 
	C176.516342,327.883759 177.786758,328.386688 178.957321,329.368164 
	C179.655533,330.104828 180.284286,330.537811 180.994156,331.176819 
	C181.188339,331.669434 181.378159,331.889862 181.644760,332.044189 
	C181.690948,333.102234 181.737137,334.160248 181.590149,335.710571 
	C181.246353,336.550354 181.343750,336.815094 181.689163,336.997131 
z"/>
<path fill="#104377" opacity="1.000000" stroke="none" 
	d="
M319.050781,261.904022 
	C323.165405,266.345673 327.279999,270.787323 331.782288,275.752594 
	C333.437073,280.187714 334.704224,284.099243 335.639709,288.058594 
	C335.539917,289.071381 335.771790,290.036316 336.003113,291.336090 
	C335.992981,292.117310 335.983368,292.563690 335.624786,293.065399 
	C333.524414,296.247803 330.583282,297.207092 327.433685,298.703186 
	C319.288879,302.572052 311.763031,307.742584 303.980408,312.377228 
	C303.130524,312.883301 302.143616,313.775757 301.346252,313.655243 
	C295.382935,312.754089 292.636902,317.346344 288.887268,320.438538 
	C287.120148,321.895813 284.059113,321.902893 282.507721,323.477020 
	C279.643250,326.383575 277.459412,329.960846 274.992004,333.258667 
	C274.531189,332.741058 274.070404,332.223480 273.609619,331.705902 
	C274.095734,335.122101 274.581848,338.538300 275.022156,341.991119 
	C274.976349,342.027740 274.890930,342.108124 274.890930,342.108124 
	C267.246643,332.053833 259.590698,322.008362 251.964371,311.940491 
	C249.275177,308.390350 246.658417,304.785339 243.989777,300.479553 
	C245.316254,298.828583 246.611313,297.817841 248.015747,296.993378 
	C253.470978,293.790924 258.961609,290.648834 264.433899,287.475403 
	C264.566620,287.398468 264.716675,287.224487 264.728790,287.084534 
	C265.328186,280.166107 270.444885,281.161438 275.104675,280.897034 
	C277.034149,280.787567 280.367706,279.806152 280.552399,278.772675 
	C281.647278,272.645935 285.912628,272.952118 290.387268,272.973114 
	C297.717224,273.007568 304.648102,267.850006 305.910583,261.610016 
	C306.962433,256.410797 309.208435,254.840317 314.438477,255.646912 
	C314.438477,255.646912 314.293030,255.795288 314.322571,255.992691 
	C314.654266,256.402588 314.956360,256.615082 315.258484,256.827576 
	C315.258484,256.827576 315.098999,256.905518 315.125244,257.183350 
	C315.613922,257.761322 316.076355,258.061432 316.538788,258.361542 
	C316.538788,258.361542 316.558502,258.488464 316.506409,258.814026 
	C316.764130,259.319733 317.074005,259.499908 317.383850,259.680084 
	C317.383850,259.680084 317.242065,259.796448 317.288696,260.004395 
	C317.638123,260.423523 317.940918,260.634735 318.243683,260.845947 
	C318.243683,260.845947 318.097046,260.898285 318.103760,261.091278 
	C318.423889,261.490875 318.737335,261.697449 319.050781,261.904022 
z"/>
<path fill="#0B3663" opacity="1.000000" stroke="none" 
	d="
M335.971344,288.010742 
	C334.704224,284.099243 333.437073,280.187714 332.088928,275.953430 
	C333.090942,275.125427 334.173950,274.620239 335.625549,274.336914 
	C341.654083,282.059021 347.314026,289.559265 353.124451,297.355469 
	C362.215881,309.078979 372.192017,319.456390 384.018829,327.956329 
	C376.318329,329.609955 373.677155,337.208771 368.144684,341.334412 
	C365.509491,343.299500 361.788635,343.802307 358.568726,344.992310 
	C356.941681,345.593628 354.253876,345.891296 353.904602,346.943390 
	C352.311066,351.743347 348.341431,351.777008 344.543640,352.768097 
	C341.533203,353.553741 338.829590,355.586151 335.810760,356.245911 
	C333.446686,356.762573 330.655884,356.487701 328.332062,355.722321 
	C325.656982,354.841187 324.081329,354.726196 322.876587,357.707977 
	C321.694031,360.634796 319.779327,361.967316 315.966675,361.763672 
	C311.875336,361.545166 307.150726,361.790131 304.911835,367.087555 
	C303.984924,369.280670 301.381409,370.765167 299.264740,372.797607 
	C292.008667,364.261597 285.028259,355.499939 278.014862,346.389038 
	C277.981842,346.039825 278.078888,345.947113 278.493896,345.950806 
	C282.468475,346.633911 286.005066,347.720337 289.591614,347.923004 
	C306.078339,348.854614 317.565857,339.930420 326.974457,327.838074 
	C334.890930,317.663422 337.214722,305.717255 335.973755,293.010040 
	C335.983368,292.563690 335.992981,292.117310 336.003632,290.962067 
	C335.993561,289.505707 335.982452,288.758209 335.971344,288.010742 
z"/>
<path fill="#104377" opacity="1.000000" stroke="none" 
	d="
M180.913025,330.970795 
	C180.284286,330.537811 179.655533,330.104828 179.278259,329.080261 
	C179.686386,327.029846 179.976746,325.571228 179.979080,324.112152 
	C180.003708,308.745544 179.982376,293.378815 179.980942,277.542786 
	C179.988174,265.441315 179.988174,253.809204 179.988174,241.392410 
	C177.345505,242.612305 176.041870,243.214096 175.038910,243.677078 
	C173.170120,242.369263 171.579803,240.327362 169.980270,240.320114 
	C166.003311,240.302124 163.902985,237.694580 161.023148,235.828857 
	C157.784302,233.730560 153.518326,231.755249 149.942627,232.119095 
	C147.258881,232.392197 145.749512,232.363434 144.076416,230.583023 
	C138.299316,224.435379 131.717270,219.607483 123.353218,217.507401 
	C121.543076,217.052902 119.688072,215.003876 118.224915,215.334076 
	C115.691910,215.905685 114.538475,215.202545 112.761642,213.575790 
	C111.265602,212.206146 108.653931,212.055069 106.536118,211.364578 
	C106.024590,213.173447 105.284721,214.954681 105.061440,216.798447 
	C104.803543,218.928040 105.076637,221.115936 104.986115,223.272934 
	C104.738380,229.176361 104.420776,235.076859 104.130844,240.978516 
	C104.081223,221.287796 104.031609,201.597061 104.447639,181.392471 
	C112.939812,180.268097 120.966324,179.657593 129.230133,179.311813 
	C135.639313,182.388382 141.811203,185.200211 148.138367,188.309708 
	C153.484680,193.213928 159.178680,197.373352 163.757568,202.524078 
	C172.194504,212.014618 179.976364,222.087524 188.031189,231.917755 
	C183.835617,233.100250 181.463898,235.595139 181.664307,240.921051 
	C181.178864,257.488556 181.056747,273.357300 181.018280,289.226196 
	C181.011978,291.828400 181.373886,294.431519 181.565628,297.034210 
	C181.641876,299.385834 181.718124,301.737457 181.552917,304.767029 
	C181.447647,306.644440 181.583817,307.843903 181.720001,309.043396 
	C181.738800,310.091736 181.757614,311.140076 181.506943,312.918396 
	C181.337051,318.771271 181.436646,323.894226 181.536255,329.017151 
	C181.564499,329.425995 181.592728,329.834808 181.416473,330.526917 
	C181.211960,330.810181 180.913025,330.970795 180.913025,330.970795 
z"/>
<path fill="#2165A5" opacity="1.000000" stroke="none" 
	d="
M128.992844,179.047073 
	C120.966324,179.657593 112.939812,180.268097 104.531128,180.929077 
	C104.053261,150.253113 127.144676,122.933983 158.890030,116.156639 
	C169.458878,113.900276 179.981171,113.801422 190.478012,116.777527 
	C190.737381,118.017860 190.754471,119.174080 191.321915,119.900238 
	C192.487671,121.392097 193.948044,122.653732 195.287155,124.010132 
	C194.687180,123.919670 194.087204,123.829216 193.487213,123.738754 
	C190.645813,127.166641 188.154846,130.984268 184.879303,133.929291 
	C180.192719,138.142960 174.965073,141.762497 169.889572,145.529419 
	C168.891998,146.269775 167.536682,146.528717 166.345352,147.007217 
	C161.989273,148.757004 157.129333,149.796494 153.406891,152.438690 
	C148.988434,155.574966 143.714813,158.363510 142.109894,164.459595 
	C141.843781,165.470352 140.160812,166.084427 139.178009,166.934341 
	C135.138611,170.427582 128.913498,172.090134 128.992844,179.047073 
z"/>
<path fill="#09305C" opacity="1.000000" stroke="none" 
	d="
M242.237503,158.873779 
	C247.064163,165.029007 251.905106,171.173096 256.709961,177.345291 
	C258.476288,179.614273 260.157288,181.949677 261.810791,184.901611 
	C257.732086,191.520721 250.547592,190.377823 245.052658,193.017654 
	C243.347412,193.836899 241.596085,194.741959 240.196747,195.981339 
	C236.377609,199.363876 232.754913,202.967438 228.995224,206.418976 
	C228.561859,206.816818 227.715668,206.725113 227.128845,207.003586 
	C225.674316,207.693848 224.280304,208.511963 222.824249,209.198776 
	C218.026489,211.461838 213.399231,214.702728 208.349472,215.635757 
	C203.625961,216.508499 199.463882,216.433456 198.681686,222.337540 
	C198.627228,222.748581 198.107788,223.395432 197.760208,223.425858 
	C192.093887,223.921982 192.718430,228.534637 191.929916,232.222733 
	C191.752151,232.193268 191.574387,232.163818 191.131042,231.633057 
	C186.089020,219.812271 185.765045,208.069565 189.221558,196.568726 
	C194.291885,179.698120 203.108444,165.365601 221.501251,160.546036 
	C228.105911,158.815399 235.308044,159.364914 242.237503,158.873779 
z"/>
<path fill="#13477D" opacity="1.000000" stroke="none" 
	d="
M104.049500,241.441605 
	C104.420776,235.076859 104.738380,229.176361 104.986115,223.272934 
	C105.076637,221.115936 104.803543,218.928040 105.061440,216.798447 
	C105.284721,214.954681 106.024590,213.173447 106.536118,211.364578 
	C108.653931,212.055069 111.265602,212.206146 112.761642,213.575790 
	C114.538475,215.202545 115.691910,215.905685 118.224915,215.334076 
	C119.688072,215.003876 121.543076,217.052902 123.353218,217.507401 
	C131.717270,219.607483 138.299316,224.435379 144.076416,230.583023 
	C145.749512,232.363434 147.258881,232.392197 149.942627,232.119095 
	C153.518326,231.755249 157.784302,233.730560 161.023148,235.828857 
	C163.902985,237.694580 166.003311,240.302124 169.980270,240.320114 
	C171.579803,240.327362 173.170120,242.369263 175.038910,243.677078 
	C176.041870,243.214096 177.345505,242.612305 179.988174,241.392410 
	C179.988174,253.809204 179.988174,265.441315 179.580353,277.538208 
	C177.732407,277.742981 175.419937,277.945618 174.996094,277.146484 
	C172.551285,272.537140 168.668945,273.615601 164.834457,273.961823 
	C163.738602,274.060760 162.603058,273.720093 161.280960,273.555542 
	C161.440338,267.982300 158.388519,266.725189 153.583740,266.895996 
	C149.816391,267.029938 145.979080,266.461609 142.239746,265.817139 
	C136.846771,264.887604 130.621155,265.291687 128.415100,258.274536 
	C128.220306,257.654907 126.757378,257.452026 125.901924,257.019073 
	C121.436523,254.758972 116.678551,252.911377 112.627182,250.060730 
	C110.182854,248.340836 108.839783,245.055817 107.001877,242.474075 
	C106.653778,242.490662 106.305687,242.507263 105.957588,242.523849 
	C105.957588,248.071991 105.957588,253.620132 105.957588,259.168274 
	C105.571747,259.105286 105.185898,259.042297 104.507507,258.957825 
	C104.132698,253.259125 104.050430,247.581909 104.049500,241.441605 
z"/>
<path fill="#1C5F9B" opacity="1.000000" stroke="none" 
	d="
M242.195007,158.514801 
	C235.308044,159.364914 228.105911,158.815399 221.501251,160.546036 
	C203.108444,165.365601 194.291885,179.698120 189.221558,196.568726 
	C185.765045,208.069565 186.089020,219.812271 190.896469,231.498749 
	C190.204453,231.883453 189.481430,231.901169 188.394791,231.918320 
	C179.976364,222.087524 172.194504,212.014618 163.757568,202.524078 
	C159.178680,197.373352 153.484680,193.213928 148.413727,188.086365 
	C149.478790,184.416107 150.805115,181.773285 154.719177,181.519012 
	C155.739700,181.452713 156.766525,180.485214 157.670044,179.777817 
	C163.589661,175.143219 169.572662,170.581833 175.340393,165.763641 
	C179.334671,162.426926 182.356552,157.677170 188.394363,157.621765 
	C188.775955,157.618256 189.114243,156.966705 189.536865,156.732437 
	C193.722092,154.412476 197.764389,151.733459 202.165939,149.937332 
	C205.614853,148.529922 209.767731,148.674255 210.431793,143.618256 
	C210.516327,142.974655 212.217957,142.512848 213.199310,142.024918 
	C214.625000,141.316055 216.020416,140.456497 217.532959,140.036377 
	C219.185104,139.577469 221.114090,139.002350 222.640869,139.446228 
	C225.464783,140.267227 228.083466,141.794067 230.787643,143.026871 
	C234.575928,148.069855 238.364227,153.112839 242.195007,158.514801 
z"/>
<path fill="#0D3A6A" opacity="1.000000" stroke="none" 
	d="
M226.086411,276.992188 
	C220.062256,269.045624 214.038116,261.099060 208.001816,252.447662 
	C214.272369,249.249756 217.800049,242.974640 224.518921,240.614304 
	C232.179367,237.923203 237.013870,229.564194 246.008743,228.728638 
	C246.856354,228.649902 247.432098,226.919006 248.379089,226.423828 
	C253.628983,223.678680 256.346893,217.593811 263.163574,216.550842 
	C268.032867,215.805817 272.552307,212.774368 277.227875,210.763153 
	C277.034332,210.391693 276.840820,210.020233 276.647278,209.648773 
	C278.160553,210.047211 279.673798,210.445663 281.187073,210.844101 
	C281.187073,210.844101 281.018219,210.969467 281.054962,211.138962 
	C281.403320,211.525085 281.714905,211.741730 282.026520,211.958374 
	C286.788208,218.291916 291.549927,224.625473 296.100464,231.297089 
	C294.905548,232.276199 293.265778,232.745789 293.046021,233.586517 
	C291.760986,238.502914 289.397644,240.947388 283.731720,241.322067 
	C280.081909,241.563416 276.625427,244.847839 273.101013,246.802124 
	C271.880432,247.478943 270.724945,248.272095 269.524292,248.986084 
	C267.817963,250.000778 265.804199,250.694763 264.436310,252.046463 
	C259.814331,256.613739 254.455673,260.168884 247.962677,259.590149 
	C244.186218,259.253540 242.747681,260.287689 240.842636,263.061859 
	C237.979431,267.231293 234.438446,270.935333 230.933136,275.140106 
	C231.159744,275.532166 231.958878,276.914856 232.719818,278.231506 
	C230.158066,277.752899 228.122238,277.372559 226.086411,276.992188 
z"/>
<path fill="#0F3E70" opacity="1.000000" stroke="none" 
	d="
M226.181534,277.313171 
	C228.122238,277.372559 230.158066,277.752899 232.719818,278.231506 
	C231.958878,276.914856 231.159744,275.532166 230.933136,275.140106 
	C234.438446,270.935333 237.979431,267.231293 240.842636,263.061859 
	C242.747681,260.287689 244.186218,259.253540 247.962677,259.590149 
	C254.455673,260.168884 259.814331,256.613739 264.436310,252.046463 
	C265.804199,250.694763 267.817963,250.000778 269.524292,248.986084 
	C270.724945,248.272095 271.880432,247.478943 273.101013,246.802124 
	C276.625427,244.847839 280.081909,241.563416 283.731720,241.322067 
	C289.397644,240.947388 291.760986,238.502914 293.046021,233.586517 
	C293.265778,232.745789 294.905548,232.276199 296.259766,231.603638 
	C296.630280,231.572144 296.597443,231.604431 296.462036,231.934128 
	C296.949402,232.791519 297.572174,233.319214 298.194946,233.846909 
	C298.194946,233.846909 298.094788,233.897736 298.172363,234.101685 
	C298.510376,234.529510 298.770844,234.753357 299.031311,234.977203 
	C299.031311,234.977203 298.999115,234.999390 299.038818,235.302704 
	C299.500336,235.996979 299.922119,236.387955 300.343933,236.778931 
	C300.343933,236.778931 300.192993,236.827011 300.255005,237.038910 
	C300.622284,237.469696 300.927551,237.688583 301.232788,237.907471 
	C305.553833,243.611526 309.874908,249.315598 314.317200,255.333282 
	C309.208435,254.840317 306.962433,256.410797 305.910583,261.610016 
	C304.648102,267.850006 297.717224,273.007568 290.387268,272.973114 
	C285.912628,272.952118 281.647278,272.645935 280.552399,278.772675 
	C280.367706,279.806152 277.034149,280.787567 275.104675,280.897034 
	C270.444885,281.161438 265.328186,280.166107 264.728790,287.084534 
	C264.716675,287.224487 264.566620,287.398468 264.433899,287.475403 
	C258.961609,290.648834 253.470978,293.790924 248.015747,296.993378 
	C246.611313,297.817841 245.316254,298.828583 243.910583,300.167511 
	C237.992371,292.932220 232.134521,285.283203 226.181534,277.313171 
z"/>
<path fill="#0B3663" opacity="1.000000" stroke="none" 
	d="
M281.094482,210.515839 
	C279.673798,210.445663 278.160553,210.047211 276.647278,209.648773 
	C276.840820,210.020233 277.034332,210.391693 277.227875,210.763153 
	C272.552307,212.774368 268.032867,215.805817 263.163574,216.550842 
	C256.346893,217.593811 253.628983,223.678680 248.379089,226.423828 
	C247.432098,226.919006 246.856354,228.649902 246.008743,228.728638 
	C237.013870,229.564194 232.179367,237.923203 224.518921,240.614304 
	C217.800049,242.974640 214.272369,249.249756 207.920700,252.133209 
	C202.655304,245.944611 197.458862,239.365662 192.096161,232.504730 
	C192.718430,228.534637 192.093887,223.921982 197.760208,223.425858 
	C198.107788,223.395432 198.627228,222.748581 198.681686,222.337540 
	C199.463882,216.433456 203.625961,216.508499 208.349472,215.635757 
	C213.399231,214.702728 218.026489,211.461838 222.824249,209.198776 
	C224.280304,208.511963 225.674316,207.693848 227.128845,207.003586 
	C227.715668,206.725113 228.561859,206.816818 228.995224,206.418976 
	C232.754913,202.967438 236.377609,199.363876 240.196747,195.981339 
	C241.596085,194.741959 243.347412,193.836899 245.052658,193.017654 
	C250.547592,190.377823 257.732086,191.520721 261.898499,185.233932 
	C268.369080,193.342133 274.685516,201.764862 281.094482,210.515839 
z"/>
<path fill="#1E629F" opacity="1.000000" stroke="none" 
	d="
M230.717285,142.705978 
	C228.083466,141.794067 225.464783,140.267227 222.640869,139.446228 
	C221.114090,139.002350 219.185104,139.577469 217.532959,140.036377 
	C216.020416,140.456497 214.625000,141.316055 213.199310,142.024918 
	C212.217957,142.512848 210.516327,142.974655 210.431793,143.618256 
	C209.767731,148.674255 205.614853,148.529922 202.165939,149.937332 
	C197.764389,151.733459 193.722092,154.412476 189.536865,156.732437 
	C189.114243,156.966705 188.775955,157.618256 188.394363,157.621765 
	C182.356552,157.677170 179.334671,162.426926 175.340393,165.763641 
	C169.572662,170.581833 163.589661,175.143219 157.670044,179.777817 
	C156.766525,180.485214 155.739700,181.452713 154.719177,181.519012 
	C150.805115,181.773285 149.478790,184.416107 148.258438,187.788696 
	C141.811203,185.200211 135.639313,182.388382 129.230133,179.311813 
	C128.913498,172.090134 135.138611,170.427582 139.178009,166.934341 
	C140.160812,166.084427 141.843781,165.470352 142.109894,164.459595 
	C143.714813,158.363510 148.988434,155.574966 153.406891,152.438690 
	C157.129333,149.796494 161.989273,148.757004 166.345352,147.007217 
	C167.536682,146.528717 168.891998,146.269775 169.889572,145.529419 
	C174.965073,141.762497 180.192719,138.142960 184.879303,133.929291 
	C188.154846,130.984268 190.645813,127.166641 193.487213,123.738754 
	C194.087204,123.829216 194.687180,123.919670 195.287155,124.010132 
	C193.948044,122.653732 192.487671,121.392097 191.321915,119.900238 
	C190.754471,119.174080 190.737381,118.017860 190.802429,116.996201 
	C207.663376,120.204399 220.341721,129.452423 230.717285,142.705978 
z"/>
<path fill="#22649F" opacity="1.000000" stroke="none" 
	d="
M337.066193,270.011597 
	C337.108246,259.014313 337.150299,248.017044 337.490234,236.846817 
	C338.190948,238.114105 338.593811,239.554337 338.998352,240.997131 
	C339.000000,240.999710 339.006195,241.003723 339.004761,241.426773 
	C339.003326,243.728012 339.003326,245.606201 339.003326,247.484390 
	C339.349731,248.007706 339.696136,248.531006 340.042511,249.054306 
	C342.130829,243.886246 344.738251,245.361282 347.630463,246.597610 
	C348.677307,247.045090 350.434479,246.317825 351.681335,245.730972 
	C359.574188,242.016068 367.331238,237.999237 375.317902,234.504288 
	C378.118622,233.278717 381.560699,233.598282 384.502716,232.601028 
	C393.035339,229.708710 401.519928,228.663116 410.167725,232.415268 
	C410.164978,234.759125 410.152588,236.677795 410.107361,239.088318 
	C410.042328,245.049911 410.010162,250.519653 409.600922,255.997589 
	C408.578369,256.134277 407.778412,256.062256 407.311218,256.422180 
	C402.307190,260.277222 396.913391,260.652618 390.879059,259.227661 
	C388.979187,258.778992 385.720306,259.983917 384.529755,261.539154 
	C382.445862,264.261383 380.254608,264.065521 377.547760,263.746948 
	C375.822266,263.543884 373.891418,263.306244 372.323822,263.856598 
	C366.340424,265.957153 360.568298,268.697083 354.523407,270.573883 
	C348.771301,272.359772 342.761108,273.797852 337.066193,270.011597 
z"/>
<path fill="#13477D" opacity="1.000000" stroke="none" 
	d="
M127.057953,365.781372 
	C127.057953,365.781372 127.185394,365.721802 127.681786,365.815308 
	C129.471939,365.563202 130.765686,365.217651 132.059448,364.872070 
	C146.804459,361.677307 159.894043,366.984344 167.445938,379.927063 
	C175.126587,393.090424 173.536682,409.898590 163.553436,420.827515 
	C162.322632,422.174896 160.922592,423.367706 159.158234,424.600037 
	C158.559708,424.807159 158.403946,425.046417 158.248169,425.285675 
	C158.248169,425.285675 157.981552,425.158905 157.760132,425.152893 
	C153.882339,425.466736 150.225952,425.786560 146.371567,426.123688 
	C145.968948,424.616760 145.545471,422.860229 145.024948,421.132904 
	C144.526688,419.479431 144.318695,416.770782 143.305817,416.405853 
	C138.663162,414.733154 138.616501,411.199982 139.043243,407.472809 
	C139.578217,402.800690 137.689514,399.814392 134.524094,398.770294 
	C132.965958,393.839569 131.627441,389.810333 130.428986,385.739868 
	C129.607391,382.949371 129.333786,379.946198 128.178055,377.318329 
	C126.710693,373.981873 124.598305,370.929108 122.764061,367.753998 
	C122.764061,367.753998 122.757019,367.824188 123.145950,367.865173 
	C124.709244,367.197906 125.883598,366.489655 127.057953,365.781372 
z"/>
<path fill="#1B5B97" opacity="1.000000" stroke="none" 
	d="
M336.978485,270.223389 
	C342.761108,273.797852 348.771301,272.359772 354.523407,270.573883 
	C360.568298,268.697083 366.340424,265.957153 372.323822,263.856598 
	C373.891418,263.306244 375.822266,263.543884 377.547760,263.746948 
	C380.254608,264.065521 382.445862,264.261383 384.529755,261.539154 
	C385.720306,259.983917 388.979187,258.778992 390.879059,259.227661 
	C396.913391,260.652618 402.307190,260.277222 407.311218,256.422180 
	C407.778412,256.062256 408.578369,256.134277 409.615601,256.467255 
	C409.996857,265.950287 409.986359,274.971832 409.558411,283.995789 
	C404.312836,284.877625 399.484741,285.757080 394.656616,286.636505 
	C388.705994,288.306061 382.810699,290.608978 376.950043,292.996735 
	C375.246429,293.690887 373.718048,294.982208 371.971222,295.358429 
	C370.048950,295.772522 367.913361,295.721558 365.976196,295.339050 
	C364.865662,295.119720 363.964691,293.839111 363.982727,293.853668 
	C359.623016,295.123260 356.298492,296.091400 352.973969,297.059540 
	C347.314026,289.559265 341.654083,282.059021 335.958435,274.181274 
	C335.963562,273.356689 336.004395,272.909637 336.388062,272.055542 
	C336.894287,271.421814 336.965759,271.169098 336.945282,270.890350 
	C336.945282,270.890350 336.890778,270.435181 336.978485,270.223389 
z"/>
<path fill="#246AAA" opacity="1.000000" stroke="none" 
	d="
M364.232697,175.809067 
	C374.432617,184.647858 384.632568,193.486649 394.811157,202.785919 
	C395.288269,203.463623 395.786682,203.680847 396.285095,203.898056 
	C396.591766,203.885071 396.837067,204.001434 396.948486,204.788437 
	C397.043549,209.717316 395.266449,211.936966 390.588104,211.108337 
	C390.020325,211.007767 389.361359,211.530548 388.725677,211.687927 
	C384.220886,212.803146 379.707977,213.885818 375.204559,215.006592 
	C373.505341,215.429504 371.062897,215.379929 370.270142,216.485626 
	C367.227051,220.729752 363.399963,222.716125 358.242279,222.452728 
	C357.470245,222.413269 356.473053,222.698334 355.914459,223.203247 
	C350.975616,227.667313 344.927063,226.984985 339.013092,226.523819 
	C339.013824,213.698792 339.019379,201.341431 339.401672,188.982941 
	C345.506317,186.502487 351.121338,183.694885 357.005951,181.671432 
	C360.345642,180.523041 362.909637,179.115829 364.232697,175.809067 
z"/>
<path fill="#104377" opacity="1.000000" stroke="none" 
	d="
M122.429253,367.822296 
	C124.598305,370.929108 126.710693,373.981873 128.178055,377.318329 
	C129.333786,379.946198 129.607391,382.949371 130.428986,385.739868 
	C131.627441,389.810333 132.965958,393.839569 134.524094,398.770294 
	C137.689514,399.814392 139.578217,402.800690 139.043243,407.472809 
	C138.616501,411.199982 138.663162,414.733154 143.305817,416.405853 
	C144.318695,416.770782 144.526688,419.479431 145.024948,421.132904 
	C145.545471,422.860229 145.968948,424.616760 146.371567,426.123688 
	C150.225952,425.786560 153.882339,425.466736 157.899170,425.201996 
	C146.466278,434.326050 131.963531,433.527191 121.613464,427.443176 
	C109.585060,420.372559 102.908287,405.976440 105.441704,392.085510 
	C107.358238,381.576965 112.781914,373.366394 122.429253,367.822296 
z"/>
<path fill="#2165A5" opacity="1.000000" stroke="none" 
	d="
M339.017883,226.991501 
	C344.927063,226.984985 350.975616,227.667313 355.914459,223.203247 
	C356.473053,222.698334 357.470245,222.413269 358.242279,222.452728 
	C363.399963,222.716125 367.227051,220.729752 370.270142,216.485626 
	C371.062897,215.379929 373.505341,215.429504 375.204559,215.006592 
	C379.707977,213.885818 384.220886,212.803146 388.725677,211.687927 
	C389.361359,211.530548 390.020325,211.007767 390.588104,211.108337 
	C395.266449,211.936966 397.043549,209.717316 397.013367,204.988770 
	C405.329346,210.808273 409.895752,219.025955 410.879639,229.755280 
	C410.487091,230.901001 410.322601,231.445541 410.158112,231.990067 
	C401.519928,228.663116 393.035339,229.708710 384.502716,232.601028 
	C381.560699,233.598282 378.118622,233.278717 375.317902,234.504288 
	C367.331238,237.999237 359.574188,242.016068 351.681335,245.730972 
	C350.434479,246.317825 348.677307,247.045090 347.630463,246.597610 
	C344.738251,245.361282 342.130829,243.886246 340.042511,249.054306 
	C339.696136,248.531006 339.349731,248.007706 339.003326,247.484390 
	C339.003326,245.606201 339.003326,243.728012 339.287109,241.158554 
	C339.383240,237.974991 339.195587,235.482681 339.005402,232.562592 
	C339.007874,230.420349 339.012878,228.705933 339.017883,226.991501 
z"/>
<path fill="#2A77BA" opacity="1.000000" stroke="none" 
	d="
M364.227142,175.821426 
	C362.909637,179.115829 360.345642,180.523041 357.005951,181.671432 
	C351.121338,183.694885 345.506317,186.502487 339.397034,188.516068 
	C339.009583,179.066116 339.058807,170.081192 338.949158,161.098221 
	C338.928223,159.384109 338.280365,157.677628 337.921753,155.967636 
	C337.921753,155.185699 337.921753,154.403763 337.921753,152.464127 
	C346.374664,159.860291 354.076782,166.599548 361.680023,173.835022 
	C362.456329,174.833908 363.331482,175.336594 364.206665,175.839294 
	C364.206665,175.839294 364.221588,175.833786 364.227142,175.821426 
z"/>
<path fill="#104377" opacity="1.000000" stroke="none" 
	d="
M409.975861,283.993378 
	C409.986359,274.971832 409.996857,265.950287 409.992676,256.459076 
	C410.010162,250.519653 410.042328,245.049911 410.343689,239.464539 
	C410.896271,243.580322 411.179626,247.811707 411.462952,252.043106 
	C411.495422,253.090591 411.527893,254.138077 411.315430,255.906891 
	C411.200958,259.430847 411.331360,262.233459 411.461761,265.036102 
	C411.494781,266.407715 411.527802,267.779327 411.328979,269.808716 
	C411.220398,271.657349 411.343658,272.848206 411.466919,274.039032 
	C411.507172,281.377441 411.547424,288.715851 411.347778,296.837524 
	C411.239777,300.088135 411.371704,302.555511 411.503601,305.022888 
	C411.512512,312.113007 411.521423,319.203156 411.372681,326.670715 
	C411.010071,327.037872 410.805176,327.027557 410.290771,326.536102 
	C409.979492,312.034424 409.977661,298.013885 409.975861,283.993378 
z"/>
<path fill="#22649F" opacity="1.000000" stroke="none" 
	d="
M339.007935,232.990387 
	C339.195587,235.482681 339.383240,237.974991 339.288574,240.735504 
	C339.006195,241.003723 339.000000,240.999710 339.000366,240.587585 
	C338.493713,238.120667 337.986664,236.065842 337.479614,234.011017 
	C337.497559,209.501144 337.515472,184.991272 337.739502,160.570526 
	C337.966370,182.885880 337.963196,205.112213 338.051056,227.338196 
	C338.058563,229.223480 338.674591,231.106384 339.007935,232.990387 
z"/>
<path fill="#1E629F" opacity="1.000000" stroke="none" 
	d="
M339.005402,232.562592 
	C338.674591,231.106384 338.058563,229.223480 338.051056,227.338196 
	C337.963196,205.112213 337.966370,182.885880 337.888000,160.169296 
	C337.792236,158.683914 337.754028,157.688889 337.818787,156.330750 
	C338.280365,157.677628 338.928223,159.384109 338.949158,161.098221 
	C339.058807,170.081192 339.009583,179.066116 339.020264,188.517212 
	C339.019379,201.341431 339.013824,213.698792 339.013092,226.523819 
	C339.012878,228.705933 339.007874,230.420349 339.005402,232.562592 
z"/>
<path fill="#5A81B1" opacity="1.000000" stroke="none" 
	d="
M181.708862,296.584473 
	C181.373886,294.431519 181.011978,291.828400 181.018280,289.226196 
	C181.056747,273.357300 181.178864,257.488556 181.555450,241.320374 
	C181.842575,259.392212 181.847321,277.763458 181.708862,296.584473 
z"/>
<path fill="#5A81B1" opacity="1.000000" stroke="none" 
	d="
M411.630707,251.599533 
	C411.179626,247.811707 410.896271,243.580322 410.376556,238.972687 
	C410.152588,236.677795 410.164978,234.759125 410.167725,232.415268 
	C410.322601,231.445541 410.487091,230.901001 410.871033,230.166412 
	C411.326477,237.036224 411.562469,244.096085 411.630707,251.599533 
z"/>
<path fill="#5A81B1" opacity="1.000000" stroke="none" 
	d="
M181.691589,328.574371 
	C181.436646,323.894226 181.337051,318.771271 181.469284,313.309998 
	C181.749710,318.024963 181.798309,323.078278 181.691589,328.574371 
z"/>
<path fill="#5A81B1" opacity="1.000000" stroke="none" 
	d="
M177.044067,373.417908 
	C178.272095,372.877502 179.674301,372.629028 181.382050,372.191376 
	C181.775726,373.511475 181.863861,375.020782 182.005173,377.440369 
	C179.910614,375.808044 178.564438,374.758942 177.044067,373.417908 
z"/>
<path fill="#5A81B1" opacity="1.000000" stroke="none" 
	d="
M411.628906,264.608154 
	C411.331360,262.233459 411.200958,259.430847 411.266846,256.297485 
	C411.574097,258.704620 411.685059,261.442413 411.628906,264.608154 
z"/>
<path fill="#1E629F" opacity="1.000000" stroke="none" 
	d="
M337.381775,234.356171 
	C337.986664,236.065842 338.493713,238.120667 338.998718,240.585022 
	C338.593811,239.554337 338.190948,238.114105 337.600525,236.398499 
	C337.369965,235.649200 337.326965,235.175262 337.381775,234.356171 
z"/>
<path fill="#5A81B1" opacity="1.000000" stroke="none" 
	d="
M411.662170,304.599243 
	C411.371704,302.555511 411.239777,300.088135 411.302856,297.302094 
	C411.605469,299.380829 411.713104,301.778198 411.662170,304.599243 
z"/>
<path fill="#104377" opacity="1.000000" stroke="none" 
	d="
M126.708847,365.809082 
	C125.883598,366.489655 124.709244,367.197906 123.160294,367.837219 
	C123.977058,367.124420 125.168404,366.480591 126.708847,365.809082 
z"/>
<path fill="#104377" opacity="1.000000" stroke="none" 
	d="
M131.886047,364.582642 
	C130.765686,365.217651 129.471939,365.563202 127.742096,365.851471 
	C128.774902,365.293823 130.243774,364.793518 131.886047,364.582642 
z"/>
<path fill="#246AAA" opacity="1.000000" stroke="none" 
	d="
M364.081177,175.574997 
	C363.331482,175.336594 362.456329,174.833908 361.835632,174.132324 
	C362.711975,174.392502 363.333801,174.851593 364.081177,175.574997 
z"/>
<path fill="#0D3A6A" opacity="1.000000" stroke="none" 
	d="
M298.135437,233.570404 
	C297.572174,233.319214 296.949402,232.791519 296.479187,231.922974 
	C297.113159,232.152710 297.594543,232.723297 298.135437,233.570404 
z"/>
<path fill="#5A81B1" opacity="1.000000" stroke="none" 
	d="
M411.632172,273.651581 
	C411.343658,272.848206 411.220398,271.657349 411.280853,270.218018 
	C411.575531,271.067719 411.686493,272.165924 411.632172,273.651581 
z"/>
<path fill="#5A81B1" opacity="1.000000" stroke="none" 
	d="
M181.848175,308.648132 
	C181.583817,307.843903 181.447647,306.644440 181.520798,305.207397 
	C181.812195,306.064148 181.894272,307.158508 181.848175,308.648132 
z"/>
<path fill="#0F3E70" opacity="1.000000" stroke="none" 
	d="
M316.426666,258.118774 
	C316.076355,258.061432 315.613922,257.761322 315.185181,257.117889 
	C315.584076,257.141724 315.949310,257.508881 316.426666,258.118774 
z"/>
<path fill="#5A81B1" opacity="1.000000" stroke="none" 
	d="
M168.090363,366.286072 
	C168.493195,366.274139 169.036392,366.510101 169.634537,367.053894 
	C169.203232,367.085754 168.716980,366.809845 168.090363,366.286072 
z"/>
<path fill="#2165A5" opacity="1.000000" stroke="none" 
	d="
M396.165436,203.663849 
	C395.786682,203.680847 395.288269,203.463623 394.971741,203.083618 
	C395.450989,203.090454 395.748383,203.260056 396.165436,203.663849 
z"/>
<path fill="#104377" opacity="1.000000" stroke="none" 
	d="
M277.917969,346.060394 
	C277.484924,345.702759 277.115723,345.324524 276.758179,344.584229 
	C276.769806,344.222168 277.011627,343.989594 277.254944,344.153564 
	C277.691833,344.860718 277.885376,345.403931 278.078888,345.947113 
	C278.078888,345.947113 277.981842,346.039825 277.917969,346.060394 
z"/>
<path fill="#0B3663" opacity="1.000000" stroke="none" 
	d="
M281.981445,211.704025 
	C281.714905,211.741730 281.403320,211.525085 281.128235,211.063538 
	C281.421997,211.028976 281.679169,211.239319 281.981445,211.704025 
z"/>
<path fill="#0F3E70" opacity="1.000000" stroke="none" 
	d="
M319.004364,261.655151 
	C318.737335,261.697449 318.423889,261.490875 318.157776,261.035248 
	C318.456085,260.992920 318.707001,261.199615 319.004364,261.655151 
z"/>
<path fill="#0D3A6A" opacity="1.000000" stroke="none" 
	d="
M300.262817,236.498993 
	C299.922119,236.387955 299.500336,235.996979 299.052917,235.288544 
	C299.412079,235.387085 299.796906,235.803070 300.262817,236.498993 
z"/>
<path fill="#104377" opacity="1.000000" stroke="none" 
	d="
M158.467499,425.235107 
	C158.403946,425.046417 158.559708,424.807159 158.844864,424.703003 
	C158.974258,424.838104 158.686813,425.184570 158.467499,425.235107 
z"/>
<path fill="#0F3E70" opacity="1.000000" stroke="none" 
	d="
M315.199432,256.565430 
	C314.956360,256.615082 314.654266,256.402588 314.360779,255.896072 
	C314.626373,255.835785 314.883392,256.069519 315.199432,256.565430 
z"/>
<path fill="#5A81B1" opacity="1.000000" stroke="none" 
	d="
M175.871536,372.477539 
	C176.072052,372.381561 176.384949,372.520325 176.802032,372.904602 
	C176.598801,373.004211 176.291367,372.858276 175.871536,372.477539 
z"/>
<path fill="#5A81B1" opacity="1.000000" stroke="none" 
	d="
M174.651886,371.535126 
	C174.865524,371.429810 175.222900,371.567596 175.686523,371.985779 
	C175.460373,372.103516 175.127991,371.940857 174.651886,371.535126 
z"/>
<path fill="#5A81B1" opacity="1.000000" stroke="none" 
	d="
M173.040298,370.265411 
	C173.212097,370.197723 173.499146,370.351746 173.897858,370.729675 
	C173.652267,370.931061 173.367615,370.775543 173.040298,370.265411 
z"/>
<path fill="#5A81B1" opacity="1.000000" stroke="none" 
	d="
M171.895676,369.350830 
	C172.085464,369.269897 172.402359,369.428314 172.842316,369.830505 
	C172.651169,369.912964 172.336960,369.751556 171.895676,369.350830 
z"/>
<path fill="#5A81B1" opacity="1.000000" stroke="none" 
	d="
M169.790741,367.591309 
	C170.021194,367.495941 170.359741,367.653137 170.768829,368.096924 
	C170.525864,368.203674 170.212357,368.023773 169.790741,367.591309 
z"/>
<path fill="#22649F" opacity="1.000000" stroke="none" 
	d="
M336.803436,271.026794 
	C336.965759,271.169098 336.894287,271.421814 336.579529,271.777771 
	C336.447388,271.640747 336.525177,271.392792 336.803436,271.026794 
z"/>
<path fill="#0D3A6A" opacity="1.000000" stroke="none" 
	d="
M301.161011,237.632462 
	C300.927551,237.688583 300.622284,237.469696 300.271393,236.961411 
	C300.513580,236.900497 300.801422,237.128967 301.161011,237.632462 
z"/>
<path fill="#5A81B1" opacity="1.000000" stroke="none" 
	d="
M166.927460,365.326721 
	C167.114517,365.250488 167.424393,365.411194 167.853119,365.812927 
	C167.664734,365.890503 167.357498,365.727112 166.927460,365.326721 
z"/>
<path fill="#0F3E70" opacity="1.000000" stroke="none" 
	d="
M317.329102,259.456360 
	C317.074005,259.499908 316.764130,259.319733 316.551819,258.859436 
	C316.937103,258.721100 317.145447,258.938904 317.329102,259.456360 
z"/>
<path fill="#104377" opacity="1.000000" stroke="none" 
	d="
M276.645630,344.334961 
	C276.203766,344.302307 275.979553,344.067627 275.867950,343.427917 
	C275.887146,343.112183 276.033142,342.967163 276.247253,343.083496 
	C276.727112,343.405701 276.910553,343.668945 277.011627,343.989594 
	C277.011627,343.989594 276.769806,344.222168 276.645630,344.334961 
z"/>
<path fill="#104377" opacity="1.000000" stroke="none" 
	d="
M275.814819,343.185364 
	C275.489685,343.043488 275.236877,342.828369 274.937500,342.360718 
	C274.890930,342.108124 274.976349,342.027740 275.229187,342.111298 
	C275.737640,342.400970 275.921356,342.658386 276.033142,342.967163 
	C276.033142,342.967163 275.887146,343.112183 275.814819,343.185364 
z"/>
<path fill="#5A81B1" opacity="1.000000" stroke="none" 
	d="
M181.754364,336.746338 
	C181.343750,336.815094 181.246353,336.550354 181.526489,336.103333 
	C181.710510,336.167694 181.765045,336.331635 181.754364,336.746338 
z"/>
<path fill="#5A81B1" opacity="1.000000" stroke="none" 
	d="
M180.994156,331.176819 
	C180.913025,330.970795 181.211960,330.810181 181.380127,330.832825 
	C181.633636,331.047729 181.718964,331.240051 181.724518,331.738281 
	C181.378159,331.889862 181.188339,331.669434 180.994156,331.176819 
z"/>
<path fill="#0F3E70" opacity="1.000000" stroke="none" 
	d="
M318.183044,260.579590 
	C317.940918,260.634735 317.638123,260.423523 317.325745,259.920471 
	C317.584900,259.856842 317.853638,260.085022 318.183044,260.579590 
z"/>
<path fill="#0D3A6A" opacity="1.000000" stroke="none" 
	d="
M298.977692,234.715698 
	C298.770844,234.753357 298.510376,234.529510 298.189301,234.048157 
	C298.393829,234.011856 298.658936,234.233032 298.977692,234.715698 
z"/>
<path fill="#185790" opacity="1.000000" stroke="none" 
	d="
M409.558411,283.995789 
	C409.977661,298.013885 409.979492,312.034424 409.983337,326.522461 
	C407.546661,331.695923 401.889069,333.453369 395.018311,331.454834 
	C391.563751,330.449982 388.193451,329.155396 384.401947,327.974091 
	C372.192017,319.456390 362.215881,309.078979 353.124451,297.355469 
	C356.298492,296.091400 359.623016,295.123260 363.982727,293.853668 
	C363.964691,293.839111 364.865662,295.119720 365.976196,295.339050 
	C367.913361,295.721558 370.048950,295.772522 371.971222,295.358429 
	C373.718048,294.982208 375.246429,293.690887 376.950043,292.996735 
	C382.810699,290.608978 388.705994,288.306061 394.656616,286.636505 
	C399.484741,285.757080 404.312836,284.877625 409.558411,283.995789 
z"/>
<path fill="#144B83" opacity="1.000000" stroke="none" 
	d="
M106.114594,259.449677 
	C105.957588,253.620132 105.957588,248.071991 105.957588,242.523849 
	C106.305687,242.507263 106.653778,242.490662 107.001877,242.474075 
	C108.839783,245.055817 110.182854,248.340836 112.627182,250.060730 
	C116.678551,252.911377 121.436523,254.758972 125.901924,257.019073 
	C126.757378,257.452026 128.220306,257.654907 128.415100,258.274536 
	C130.621155,265.291687 136.846771,264.887604 142.239746,265.817139 
	C145.979080,266.461609 149.816391,267.029938 153.583740,266.895996 
	C158.388519,266.725189 161.440338,267.982300 161.280960,273.555542 
	C162.603058,273.720093 163.738602,274.060760 164.834457,273.961823 
	C168.668945,273.615601 172.551285,272.537140 174.996094,277.146484 
	C175.419937,277.945618 177.732407,277.742981 179.573120,278.007599 
	C179.982376,293.378815 180.003708,308.745544 179.979080,324.112152 
	C179.976746,325.571228 179.686386,327.029846 179.208801,328.776581 
	C177.786758,328.386688 176.516342,327.883759 175.609314,327.005524 
	C152.473587,304.604614 129.375916,282.164429 106.114594,259.449677 
z"/>
<path fill="#13477D" opacity="1.000000" stroke="none" 
	d="
M276.247253,343.083496 
	C275.921356,342.658386 275.737640,342.400970 275.275024,342.074677 
	C274.581848,338.538300 274.095734,335.122101 273.609619,331.705902 
	C274.070404,332.223480 274.531189,332.741058 274.992004,333.258667 
	C277.459412,329.960846 279.643250,326.383575 282.507721,323.477020 
	C284.059113,321.902893 287.120148,321.895813 288.887268,320.438538 
	C292.636902,317.346344 295.382935,312.754089 301.346252,313.655243 
	C302.143616,313.775757 303.130524,312.883301 303.980408,312.377228 
	C311.763031,307.742584 319.288879,302.572052 327.433685,298.703186 
	C330.583282,297.207092 333.524414,296.247803 335.624786,293.065399 
	C337.214722,305.717255 334.890930,317.663422 326.974457,327.838074 
	C317.565857,339.930420 306.078339,348.854614 289.591614,347.923004 
	C286.005066,347.720337 282.468475,346.633911 278.493896,345.950806 
	C277.885376,345.403931 277.691833,344.860718 277.254944,344.153564 
	C276.910553,343.668945 276.727112,343.405701 276.247253,343.083496 
z"/>
<path fill="#13477D" opacity="1.000000" stroke="none" 
	d="
M335.639709,288.058594 
	C335.982452,288.758209 335.993561,289.505707 336.004150,290.627197 
	C335.771790,290.036316 335.539917,289.071381 335.639709,288.058594 
z"/>
</svg>